<?xml version="1.0" encoding="iso-8859-1"?>
<!-- Generator: Adobe Illustrator 19.0.0, SVG Export Plug-In . SVG Version: 6.00 Build 0)  -->
<svg version="1.1" id="Capa_1" xmlns="http://www.w3.org/2000/svg" xmlns:xlink="http://www.w3.org/1999/xlink" x="0px" y="0px"
	 viewBox="0 0 512 512" style="enable-background:new 0 0 512 512;" xml:space="preserve">
<circle style="fill:#343A6E;" cx="256" cy="256" r="256"/>
<circle style="fill:#484B7F;" cx="256" cy="215.907" r="215.907"/>
<circle style="fill:#EF487D;" cx="213.88" cy="154.875" r="154.875"/>
<path style="fill:#FF668C;" d="M213.881,286.762c-72.723,0-131.887-59.164-131.887-131.887
	C81.993,82.152,141.157,22.988,213.881,22.988c72.723,0,131.887,59.164,131.887,131.887
	C345.767,227.598,286.603,286.762,213.881,286.762z"/>
<path style="fill:#F9D5A9;" d="M403.937,353.667v96.413c0,5.319-0.387,10.553-1.16,15.684C361.221,494.905,310.617,512,256,512
	c-54.314,0-104.667-16.906-146.098-45.756c-1.223-8.537-1.849-17.178-1.849-25.882V334.158c0-8.046,3.26-15.329,8.537-20.605
	c1.327-1.327,2.779-2.529,4.336-3.574c4.639-3.124,10.24-4.953,16.259-4.953c16.091,0,29.132,13.04,29.132,29.132V309.75
	c0-8.046,3.26-15.318,8.537-20.595c5.277-5.277,12.56-8.537,20.605-8.537c16.081,0,29.132,13.051,29.132,29.132v-9.906
	c0-8.046,3.26-15.329,8.526-20.605c5.277-5.266,12.56-8.526,20.605-8.526c16.091,0,29.132,13.04,29.132,29.132V174.153
	c0-8.046,3.26-15.329,8.526-20.595c1.327-1.327,2.779-2.529,4.347-3.584c4.838-3.26,10.71-5.11,17.021-4.942
	c15.893,0.408,28.369,13.876,28.369,29.78v204.946c0-15.663,5.736-29.978,15.214-40.981c1.024-1.191,2.079-2.33,3.187-3.438
	l0.345-0.345C376.215,318.892,403.937,330.71,403.937,353.667z"/>
<g>
	<path style="fill:#E5A379;" d="M295.729,149.973v210.286c0,3.555-2.882,6.437-6.437,6.437l0,0c-3.555,0-6.437-2.882-6.437-6.437
		V174.152c0-8.046,3.26-15.329,8.526-20.595C292.709,152.23,294.162,151.029,295.729,149.973z"/>
	<path style="fill:#E5A379;" d="M237.466,275.664v96.423c0,3.555-2.882,6.437-6.437,6.437l0,0c-3.555,0-6.437-2.882-6.437-6.437
		v-72.244c0-8.046,3.26-15.329,8.526-20.595C234.446,277.921,235.898,276.719,237.466,275.664z"/>
	<path style="fill:#E5A379;" d="M179.192,285.57v93.832c0,3.555-2.882,6.437-6.437,6.437l0,0c-3.555,0-6.437-2.882-6.437-6.437
		v-69.653c0-8.046,3.26-15.329,8.526-20.595C176.172,287.827,177.624,286.625,179.192,285.57z"/>
	<path style="fill:#E5A379;" d="M120.926,309.979v163.527c-3.741-2.33-7.419-4.754-11.024-7.262
		c-1.223-8.537-1.849-17.178-1.849-25.882V334.158c0-8.046,3.26-15.329,8.537-20.605
		C117.917,312.226,119.369,311.024,120.926,309.979z"/>
	<path style="fill:#E5A379;" d="M356.333,338.776V441.97c0,4.202-3.405,7.607-7.607,7.607l0,0c-4.202,0-7.607-3.405-7.607-7.607
		v-62.213C341.119,364.094,346.856,349.779,356.333,338.776z"/>
</g>
<path style="fill:#FFFFFF;" d="M270.332,185.712l-30.837-30.838l30.837-30.837c2.963-2.963,2.963-7.769,0-10.732L255.45,98.423
	c-2.963-2.963-7.769-2.963-10.732,0l-30.837,30.837l-30.838-30.838c-2.963-2.963-7.769-2.963-10.732,0l-14.881,14.881
	c-2.963,2.963-2.963,7.769,0,10.732l30.838,30.838l-30.837,30.837c-2.963,2.963-2.963,7.769,0,10.732l14.881,14.881
	c2.963,2.963,7.769,2.963,10.732,0l30.837-30.837l30.838,30.838c2.963,2.963,7.769,2.963,10.732,0l14.881-14.881
	C273.295,193.482,273.295,188.676,270.332,185.712z"/>
<g>
</g>
<g>
</g>
<g>
</g>
<g>
</g>
<g>
</g>
<g>
</g>
<g>
</g>
<g>
</g>
<g>
</g>
<g>
</g>
<g>
</g>
<g>
</g>
<g>
</g>
<g>
</g>
<g>
</g>
</svg>
