<svg height="512" viewBox="0 0 512 512" width="512" xmlns="http://www.w3.org/2000/svg"><g id="Flat"><g><path d="m454.426 366.426-54.426-54.426-96-64h-96l-96 64-54.426 54.426a60 60 0 0 0 -17.574 42.427v49.147a30 30 0 0 0 30 30h26l8-8h304l8 8h26a30 30 0 0 0 30-30v-49.147a60 60 0 0 0 -17.574-42.427z" fill="#fa5d3f"/><path d="m304 248-48 48-48-48 8-40h80z" fill="#ffd4cf"/><path d="m299.937 227.685-3.937-19.685h-80l-3.98 19.9 27.824 13.911a36 36 0 0 0 32.363-.082z" fill="#fbb8b0"/><path d="m332 120h-12v-32h-128v32h-12a20 20 0 0 0 -20 20v8a20 20 0 0 0 20 20h12v13.459a30 30 0 0 0 16.583 26.833l38.417 19.208a20 20 0 0 0 17.979-.045l38.575-19.534a30 30 0 0 0 16.446-26.765v-13.156h12a20 20 0 0 0 20-20v-8a20 20 0 0 0 -20-20z" fill="#ffd4cf"/><g fill="#ae7069"><path d="m216 128h16v16h-16z"/><path d="m280 128h16v16h-16z"/></g><path d="m256 200c-13.458 0-24-8.785-24-20h16c0 1.41 3.037 4 8 4s8-2.59 8-4h16c0 11.215-10.542 20-24 20z" fill="#ae7069"/><path d="m234 24h44a50 50 0 0 1 50 50v14a0 0 0 0 1 0 0h-144a0 0 0 0 1 0 0v-14a50 50 0 0 1 50-50z" fill="#fa5d3f"/><path d="m296.906 115.271-18.718-12.479a40 40 0 0 0 -44.376 0l-18.718 12.479a20 20 0 0 1 -31.094-16.641v-10.63l33.149-18.416a80 80 0 0 1 77.7 0l33.151 18.416v10.63a20 20 0 0 1 -31.094 16.641z" fill="#fac850"/><rect fill="#fac850" height="208" rx="10" width="288" x="112" y="280"/><path d="m128 432h-32v56h88a56 56 0 0 0 -56-56z" fill="#ffd4cf"/><path d="m224 280h64v72h-64z" fill="#fa7d29"/><path d="m224 440h64v48h-64z" fill="#fa7d29"/><path d="m384 432h32v56h-88a56 56 0 0 1 56-56z" fill="#ffd4cf"/><g fill="#fffffe"><path d="m136 304h16v16h-16z"/><path d="m168 304h32v16h-32z"/><path d="m136 336h64v16h-64z"/><path d="m340 312h28a0 0 0 0 1 0 0v20a20 20 0 0 1 -20 20h-28a0 0 0 0 1 0 0v-20a20 20 0 0 1 20-20z"/></g><path d="m416 432h24v16h-24z" fill="#d3463d"/><path d="m72 432h24v16h-24z" fill="#d3463d"/></g></g></svg>