<svg id="Capa_1" enable-background="new 0 0 512 512" height="512" viewBox="0 0 512 512" width="512" xmlns="http://www.w3.org/2000/svg"><g><g><path clip-rule="evenodd" d="m482.081 444.597v-283.278h-452.162v283.278c0 2.532 2.071 4.603 4.603 4.603h442.957c2.531 0 4.602-2.072 4.602-4.603z" fill="#eff6ff" fill-rule="evenodd"/></g><g><path clip-rule="evenodd" d="m322.538 396.41-154.134-123.644-7.681 26.581 103.361 128.996z" fill="#fe8d94" fill-rule="evenodd"/></g><g><path clip-rule="evenodd" d="m264.084 428.343-103.361-128.996-12.168 42.117 83.597 104.312z" fill="#ccf49f" fill-rule="evenodd"/></g><g><path clip-rule="evenodd" d="m232.152 445.776-83.597-104.312-17.203 59.578 38.605 48.158 17.031 21.23 38.893-21.23z" fill="#fe8d94" fill-rule="evenodd"/></g><g><path clip-rule="evenodd" d="m169.957 449.2-38.605-48.158-12.169 42.088 4.862 6.07 31.011 38.664 31.932-17.434z" fill="#ccf49f" fill-rule="evenodd"/></g><g><path clip-rule="evenodd" d="m155.056 487.864-31.011-38.664-4.862-6.07-1.726 6.07-14.269 49.366c-1.985 9.206-1.064 13.348 3.423 13.435h.259c2.215-.029 5.264-1.036 9.234-2.848z" fill="#fe8d94" fill-rule="evenodd"/></g><g><path clip-rule="evenodd" d="m29.919 171.474h452.162v-45.856h-298.661-153.501z" fill="#9fd4fe" fill-rule="evenodd"/></g><g><path clip-rule="evenodd" d="m183.42 135.744h298.661v-77.587c0-2.532-2.071-4.603-4.603-4.603-147.662 0-295.324 0-442.957 0-2.532 0-4.603 2.071-4.603 4.603v77.587z" fill="#fe8d94" fill-rule="evenodd"/></g><g><path d="m146.131 35.175v18.379h-15.223v-18.379c0-11.001-8.961-19.952-19.983-19.952-11.001 0-19.942 8.951-19.942 19.952v36.759c0 11.001 8.941 19.952 19.942 19.952 4.201 0 7.611 3.41 7.611 7.611s-3.41 7.611-7.611 7.611c-19.394 0-35.165-15.781-35.165-35.175v-36.758c0-19.394 15.771-35.175 35.165-35.175 19.414 0 35.206 15.781 35.206 35.175z" fill="#fde588"/></g><g><path d="m245.232 35.175v18.379h-15.223v-18.379c0-11.001-8.961-19.952-19.983-19.952-10.991 0-19.942 8.951-19.942 19.952v36.759c0 11.001 8.951 19.952 19.942 19.952 4.212 0 7.611 3.41 7.611 7.611s-3.4 7.611-7.611 7.611c-19.394 0-35.165-15.781-35.165-35.175v-36.758c0-19.394 15.772-35.175 35.166-35.175 19.414 0 35.205 15.781 35.205 35.175z" fill="#fde588"/></g><g><path d="m344.334 35.175v18.379h-15.223v-18.379c0-11.001-8.961-19.952-19.983-19.952-10.991 0-19.942 8.951-19.942 19.952v36.759c0 11.001 8.951 19.952 19.942 19.952 4.212 0 7.611 3.41 7.611 7.611s-3.4 7.611-7.611 7.611c-19.384 0-35.165-15.781-35.165-35.175v-36.758c0-19.394 15.781-35.175 35.165-35.175 19.415 0 35.206 15.781 35.206 35.175z" fill="#fde588"/></g><g><path d="m443.436 35.175v18.379h-15.223v-18.379c0-11.001-8.951-19.952-19.952-19.952-11.011 0-19.973 8.951-19.973 19.952v36.759c0 11.001 8.961 19.952 19.973 19.952 4.212 0 7.612 3.41 7.612 7.611s-3.4 7.611-7.612 7.611c-19.404 0-35.195-15.781-35.195-35.175v-36.758c-.001-19.394 15.79-35.175 35.194-35.175 19.395 0 35.176 15.781 35.176 35.175z" fill="#fde588"/></g><g><path d="m288.991 280.233c-1.67 0-3.351-.547-4.756-1.673-3.279-2.629-3.807-7.419-1.177-10.7l28.365-35.385c2.629-3.28 7.416-3.807 10.7-1.177 3.279 2.629 3.807 7.419 1.177 10.7l-28.365 35.385c-1.504 1.875-3.714 2.85-5.944 2.85z" fill="#fe8d94"/></g><g><path d="m234.537 290.935c-1.777 0-3.562-.618-5.005-1.88-3.166-2.765-3.49-7.574-.723-10.739 9.771-11.183 20.904-24.807 29.391-41.061 1.945-3.727 6.543-5.172 10.27-3.225 3.726 1.945 5.17 6.543 3.225 10.27-9.226 17.671-21.061 32.175-31.422 44.033-1.506 1.721-3.616 2.602-5.736 2.602z" fill="#9fd4fe"/></g><g><path d="m290.371 335.699c-1.566 0-3.145-.482-4.502-1.48-3.388-2.491-4.114-7.255-1.624-10.641 9.35-12.717 20.957-27.439 36.16-40.213 3.219-2.704 8.02-2.288 10.724.931 2.705 3.219 2.287 8.02-.931 10.724-13.975 11.742-24.872 25.584-33.688 37.575-1.493 2.028-3.8 3.104-6.139 3.104z" fill="#9fd4fe"/></g><g><path d="m325.495 363.892c-1.524 0-3.062-.457-4.4-1.406-3.427-2.434-4.233-7.186-1.799-10.613 14.232-20.039 35.307-43.266 72.268-45.024 4.184-.204 7.765 3.042 7.964 7.241.2 4.199-3.042 7.765-7.241 7.964-30.226 1.438-47.585 20.336-60.579 38.633-1.485 2.09-3.831 3.205-6.213 3.205z" fill="#fe8d94"/></g><g><path d="m209.965 258.227c-1.321 0-2.66-.344-3.878-1.067-3.615-2.146-4.806-6.816-2.66-10.43 4.282-7.215 8.462-16.355 6.98-29.435-.474-4.176 2.529-7.946 6.707-8.419 4.162-.467 7.945 2.529 8.419 6.707 2.001 17.662-3.767 30.076-9.016 38.918-1.422 2.395-3.954 3.726-6.552 3.726z" fill="#fe8d94"/></g><g><path clip-rule="evenodd" d="m111.819 468.675-8.63 29.89c-1.985 9.206-1.064 13.348 3.423 13.435h.259c2.215-.029 5.264-1.036 9.234-2.848l38.951-21.288-23.877-29.775z" fill="#ff6d75" fill-rule="evenodd"/></g><g><path clip-rule="evenodd" d="m131.179 458.089 23.877 29.775 31.932-17.434-17.031-21.23-6.846-8.545-15.621 8.545z" fill="#b3e59f" fill-rule="evenodd"/></g><g><path clip-rule="evenodd" d="m163.111 440.655 6.846 8.545 17.031 21.23 38.893-21.23 6.271-3.424-23.877-29.803z" fill="#ff6d75" fill-rule="evenodd"/></g><g><path clip-rule="evenodd" d="m208.275 415.973 23.877 29.803 31.932-17.433-23.877-29.804z" fill="#b3e59f" fill-rule="evenodd"/></g><g><path clip-rule="evenodd" d="m240.207 398.539 23.877 29.804 58.454-31.933-31.787-25.488z" fill="#ff6d75" fill-rule="evenodd"/></g><g><path clip-rule="evenodd" d="m440.196 53.554v72.064 10.126h41.885v-10.126-67.461c0-2.532-2.071-4.603-4.603-4.603h-29.658z" fill="#ff6d75" fill-rule="evenodd"/></g><g><path clip-rule="evenodd" d="m440.196 135.744v25.575 10.155h41.885v-10.155-25.575z" fill="#85beef" fill-rule="evenodd"/></g><g><path clip-rule="evenodd" d="m440.196 171.474v277.726h17.088 20.195c2.531 0 4.603-2.071 4.603-4.603v-273.123z" fill="#d9eeff" fill-rule="evenodd"/></g><g><path clip-rule="evenodd" d="m29.919 171.474h452.162v31.012h-452.162z" fill="#d9eeff" fill-rule="evenodd"/></g><g><path d="m336.543 415.242c-1.671 0-3.353-.547-4.757-1.674l-182.154-146.084c-3.279-2.629-3.806-7.42-1.175-10.7 2.63-3.277 7.421-3.806 10.7-1.175l182.153 146.084c3.279 2.629 3.806 7.42 1.175 10.7-1.503 1.874-3.712 2.849-5.942 2.849z" fill="#fde588"/></g></g></svg>