<svg height="512" viewBox="0 0 512 512" width="512" xmlns="http://www.w3.org/2000/svg"><g id="flat"><path d="m440 288h-16v-56a72 72 0 0 0 -144 0v48h-16v-48a88 88 0 0 1 176 0z" fill="#428dc5"/><path d="m232 272h224v32h-224z" fill="#6cbae5"/><path d="m432 456h-176l-16-152h208z" fill="#4799cf"/><path d="m456 270v57.55c0 8.61-6.62 16.03-15.23 16.43a16.01 16.01 0 0 1 -16.77-15.98 16 16 0 1 1 -32 0 16 16 0 1 1 -32 0 15.942 15.942 0 0 1 -2.14 8 16.141 16.141 0 0 1 -5.86 5.86 15.789 15.789 0 0 1 -7.75 2.14c-8.94.13-16.25-7.5-16.25-16.44v-57.56a22 22 0 0 1 22-22h84a22 22 0 0 1 22 22z" fill="#fd9226"/><g fill="#6cbae5"><path d="m256 456h176v32h-176z"/><path d="m392 392h16v40h-16z"/><path d="m392 360h16v16h-16z"/></g><path d="m360 328a15.942 15.942 0 0 1 -2.14 8 16.141 16.141 0 0 1 -5.86 5.86v-45.86h8z" fill="#e08122"/><path d="m392 328a15.994 15.994 0 0 1 -8 13.86v-45.86h8z" fill="#e08122"/><path d="m424 328a15.994 15.994 0 0 1 -8 13.86v-45.86h8z" fill="#e08122"/><path d="m312 488h-256l16-64h224z" fill="#fbb540"/><path d="m80 392h208a8 8 0 0 1 8 8v24a0 0 0 0 1 0 0h-224a0 0 0 0 1 0 0v-24a8 8 0 0 1 8-8z" fill="#c17450"/><path d="m168 424h32l8 64h-48z" fill="#ea9d2d"/><path d="m88 488 16-64h32l-16 64z" fill="#ea9d2d"/><path d="m184 24a16 16 0 0 1 16 16v352a0 0 0 0 1 0 0h-32a0 0 0 0 1 0 0v-352a16 16 0 0 1 16-16z" fill="#8f563b"/><path d="m104 208a50.6 50.6 0 0 1 -32 32 50.6 50.6 0 0 1 32 32 50.6 50.6 0 0 1 32-32 50.6 50.6 0 0 1 -32-32z" fill="#fbb540"/><path d="m456 112a50.6 50.6 0 0 1 -32 32 50.6 50.6 0 0 1 32 32 50.6 50.6 0 0 1 32-32 50.6 50.6 0 0 1 -32-32z" fill="#fbb540"/><path d="m56 304a50.6 50.6 0 0 1 -32 32 50.6 50.6 0 0 1 32 32 50.6 50.6 0 0 1 32-32 50.6 50.6 0 0 1 -32-32z" fill="#fbb540"/><path d="m232 424h32l16 64h-32z" fill="#ea9d2d"/></g></svg>