<?xml version="1.0"?>
<svg xmlns="http://www.w3.org/2000/svg" xmlns:xlink="http://www.w3.org/1999/xlink" xmlns:svgjs="http://svgjs.com/svgjs" version="1.1" width="512" height="512" x="0" y="0" viewBox="0 0 512 512" style="enable-background:new 0 0 512 512" xml:space="preserve" class=""><g><g xmlns="http://www.w3.org/2000/svg"><path d="m402.083 237.37-132.65 266.32c-5.517 11.056-21.337 11.067-26.86 0l-132.67-266.34c-54.291-108.604 24.714-237.35 146.1-237.35 121.392 0 200.399 128.753 146.08 237.37z" fill="#5ecaff" data-original="#ff5e90" style="" class=""/><path d="m402.083 237.37-132.65 266.32c-2.54 5.09-7.74 8.31-13.43 8.31v-512c121.392 0 200.399 128.753 146.08 237.37z" fill="#50b5e7" data-original="#d01273" style="" class=""/><path d="m350.903 152.17-44.39 32.24 16.96 52.18c3.123 9.651-4.052 19.63-14.27 19.63-3.09 0-6.19-.95-8.82-2.86l-44.38-32.25-44.38 32.25c-5.26 3.82-12.38 3.82-17.64 0-5.25-3.82-7.45-10.59-5.45-16.77l16.96-52.18-44.39-32.24c-5.25-3.82-7.45-10.59-5.45-16.77 2.01-6.18 7.77-10.37 14.27-10.37h54.86l16.95-52.17c2.01-6.19 7.77-10.37 14.27-10.37s12.26 4.18 14.27 10.37l16.95 52.17h54.86c6.5 0 12.26 4.19 14.27 10.37 2 6.18-.2 12.95-5.45 16.77z" fill="#ffdd54" data-original="#ffdd54" style="" class=""/><path d="m350.903 152.17-44.39 32.24 16.96 52.18c3.123 9.651-4.052 19.63-14.27 19.63-3.09 0-6.19-.95-8.82-2.86l-44.38-32.25v-158.62c6.5 0 12.26 4.18 14.27 10.37l16.95 52.17h54.86c6.5 0 12.26 4.19 14.27 10.37 2 6.18-.2 12.95-5.45 16.77z" fill="#ffb454" data-original="#ffb454" style=""/><path d="m383.003 497c0 8.28-6.72 15-15 15h-224c-8.28 0-15-6.72-15-15s6.72-15 15-15h224c8.28 0 15 6.72 15 15z" fill="#8acf84" data-original="#acceff" style="" class=""/><path d="m383.003 497c0 8.28-6.72 15-15 15h-112v-30h112c8.28 0 15 6.72 15 15z" fill="#95c191" data-original="#989dec" style="" class=""/></g></g></svg>
