<svg id="Capa_1" enable-background="new 0 0 497.42 497.42" height="512" viewBox="0 0 497.42 497.42" width="512" xmlns="http://www.w3.org/2000/svg"><g><g><path d="m446.937 126.032c.109-.795.498-1.544 1.057-2.117l22.859-22.282c2.2-2.145.986-5.881-2.054-6.322l-31.591-4.591c-1.207-.175-2.251-.934-2.791-2.028l-14.127-28.626c-1.359-2.755-5.288-2.755-6.647 0l-14.128 28.626c-.54 1.094-1.583 1.852-2.79 2.028h-.001l-10.682 1.552-18.28 3.206c-3.04.44-4.25 4.18-2.05 6.32l22.249 21.816c.88.86 1.28 2.08 1.07 3.29l-5.21 27.749c-.51 3.03 2.66 5.34 5.38 3.91l26.082-12.426c1.08-.57 2.37-.57 3.45 0l26.383 14.383c2.72 1.43 5.9-.88 5.38-3.91l-1.85-19.422-1.712-9.989c-.035-.389-.082-.781.003-1.167z" fill="#ffd064"/><path d="m446.94 162.57-28.25-14.86c-1.08-.57-2.37-.57-3.45 0l-28.26 14.86c-2.72 1.43-5.89-.88-5.38-3.91l5.4-31.46c.21-1.21-.19-2.43-1.07-3.29l-22.85-22.28c-2.2-2.14-.99-5.88 2.05-6.32l20.91-3.04c7.87 26.01 32.03 44.95 60.61 44.95.67 0 1.33-.01 1.99-.03l3.68 21.47c.52 3.03-2.66 5.34-5.38 3.91z" fill="#ffc250"/></g><g><path d="m110.424 126.032c.109-.795.498-1.544 1.057-2.117l22.859-22.282c2.2-2.145.986-5.881-2.054-6.322l-31.591-4.591c-1.207-.175-2.251-.934-2.791-2.028l-14.127-28.626c-1.359-2.755-5.288-2.755-6.647 0l-14.128 28.626c-.54 1.094-1.583 1.852-2.79 2.028h-.001l-10.682 1.552-18.28 3.206c-3.04.44-4.25 4.18-2.05 6.32l22.249 21.816c.88.86 1.28 2.08 1.07 3.29l-5.21 27.749c-.51 3.03 2.66 5.34 5.38 3.91l26.082-12.426c1.08-.57 2.37-.57 3.45 0l26.383 14.383c2.72 1.43 5.9-.88 5.38-3.91l-1.85-19.422-1.712-9.989c-.034-.389-.081-.781.003-1.167z" fill="#ffd064"/><path d="m110.428 162.57-28.25-14.86c-1.08-.57-2.37-.57-3.45 0l-28.26 14.86c-2.72 1.43-5.89-.88-5.38-3.91l5.4-31.46c.21-1.21-.19-2.43-1.07-3.29l-22.85-22.28c-2.2-2.14-.99-5.88 2.05-6.32l20.91-3.04c7.87 26.01 32.03 44.95 60.61 44.95.67 0 1.33-.01 1.99-.03l3.68 21.47c.52 3.03-2.66 5.34-5.38 3.91z" fill="#ffc250"/></g><g><path d="m272.224 267.677 5.563-29.82c2.831-15.175-2.925-30.377-14.406-39.872-2.455-2.03-6.36-1.32-9.311-2.772-6.913-3.403-10.322 1.726-12.788 9.054l-27.909 84.195c-7.644 22.715-15.216 48.686-36.44 59.646v106.699c0 17.478 3.475 42.576 44.001 42.576l99.567.038 44.439-14.258v-151.433l-42.484-17.548h-12.178c-24.672-.001-42.6-22.138-38.054-46.505z" fill="#f2d1a5"/><path d="m187.901 451.516v-93.165c0-6.566 2.924-12.803 8.017-16.946 16.72-13.599 29.391-38.53 35.898-57.868l26.588-79.013c.94-2.795 2.735-5.024 4.974-6.531-2.456-2.031-5.168-3.807-8.119-5.26-6.913-3.403-15.228.076-17.694 7.404l-26.588 79.013c-7.644 22.715-23.788 46.341-45.012 57.3l-10.968 69.351 10.968 59.973c0 17.478 17.979 31.61 58.504 31.61.001 0-37.138-6.743-36.568-45.868z" fill="#f2bb88"/><path d="m371.848 491.936h-51.347c-11.586 0-14.398-3.908-14.398-15.494 0-11.586 2.812-20.978 14.398-20.978h1.617l26.439-10.968 24.388 10.968c7.566 0 13.7 6.134 13.7 13.7v6.879c0 7.566-7.23 15.893-14.797 15.893z" fill="#f2d1a5"/><path d="m342.437 475.485c-11.263 0-20.426-8.883-20.93-20.021h-1.006c-11.586 0-20.978 9.392-20.978 20.978 0 11.586 9.392 20.978 20.978 20.978h52.444c7.566 0 13.7-6.134 13.7-13.7v-8.235z" fill="#f2bb88"/><path d="m373.752 448.883-50.681 1.097c-13.005 1.097-15.87-16.757-15.87-18.063h-1.097c0-13.005 3.962-23.547 16.966-23.547l24.67-10.968 33.689 10.968c9.458 0 17.125 7.667 17.125 17.125v8.457c0 9.457-15.344 16.028-24.802 14.931z" fill="#f2d1a5"/><path d="m345.006 433.528c-13.005 0-23.547-10.542-23.547-23.547 0-.518.045-1.025.077-1.534-12.286.794-22.013 10.983-22.013 23.47 0 13.005 10.542 23.547 23.547 23.547h58.359c9.458 0 17.125-7.667 17.125-17.125v-4.81h-53.548z" fill="#f2bb88"/><path d="m387.659 401.789-64.896 1.097c-13.005 0-16.966-5.058-16.966-18.063 0-13.005 3.962-23.547 16.966-23.547l32.025-10.968 27.816 10.968h13.83c9.458 0 17.125 7.667 17.125 17.125v8.457c0 9.457-16.442 14.931-25.9 14.931z" fill="#f2d1a5"/><path d="m344.698 386.434c-13.005 0-23.547-10.542-23.547-23.547 0-.518.044-1.025.077-1.534-12.286.794-22.013 10.983-22.013 23.47 0 13.005 10.542 23.547 23.547 23.547h73.671c9.458 0 17.125-7.667 17.125-17.125v-4.81h-68.86z" fill="#f2bb88"/><path d="m371.558 355.791h-48.488c-13.005 0-15.87-18.063-15.87-18.063 0-13.005 2.865-23.547 15.87-23.547h58.359c9.458 0 17.125 7.667 17.125 17.125v8.457c0 9.458-17.538 16.028-26.996 16.028z" fill="#f2d1a5"/><path d="m345.006 339.34c-13.005 0-23.547-10.542-23.547-23.547 0-.518.045-1.025.077-1.534-12.286.794-22.013 10.983-22.013 23.47 0 13.005 10.542 23.547 23.547 23.547h58.359c9.458 0 17.125-7.667 17.125-17.125v-4.81h-53.548z" fill="#f2bb88"/><path d="m141.925 490.641h-13.528c-9.086 0-9.953-14.996-9.953-24.082l-.56-128.831c0-9.086 1.427-23.547 10.513-23.547h21.117c9.086 0 16.452 7.366 16.452 16.452v150.336c0 9.086-14.955 9.672-24.041 9.672z" fill="#f1f6f7"/><path d="m139.365 475.485c-3.029 0-5.484-2.455-5.484-5.484v-155.82h-5.484c-9.086 0-16.452 7.366-16.452 16.452v150.336c0 9.086 7.366 16.452 16.452 16.452h21.117c9.086 0 16.452-7.366 16.452-16.452v-5.484z" fill="#e1ebf0"/></g><path d="m295.211 105.917c.13-1.35.722-2.626 1.708-3.593l35.486-34.59c3.415-3.329 1.531-9.129-3.189-9.815l-49.041-7.126c-1.874-.272-3.494-1.449-4.332-3.148l-21.931-44.438c-2.111-4.277-8.209-4.277-10.32 0l-21.932 44.438c-.834 1.69-2.473 2.878-4.33 3.144l-15.861 2.306-24.536 8.361c-4.72.69-6.61 6.49-3.19 9.81l33.703 31.684c1.36 1.33 1.98 3.23 1.66 5.1l-11.31 43.618c-.8 4.7 4.13 8.29 8.35 6.07l39.885-24.793c1.68-.89 3.68-.89 5.36 0l39.341 22.128c4.22 2.22 9.16-1.37 8.35-6.07l-1.15-26.015-2.666-15.541c-.075-.51-.117-1.023-.055-1.53z" fill="#ffd064"/><path d="m295.291 162.33-43.86-23.06c-1.68-.89-3.68-.89-5.36 0l-43.86 23.06c-4.22 2.22-9.15-1.37-8.35-6.07l8.38-48.84c.32-1.87-.3-3.77-1.66-5.1l-35.481-34.59c-3.42-3.32-1.53-9.12 3.19-9.81l33.18-4.82c8.28 40.21 43.87 70.45 86.53 70.45 3.36 0 6.67-.19 9.93-.56l5.71 33.27c.81 4.7-4.129 8.29-8.349 6.07z" fill="#ffc250"/></g></svg>