<svg id="Capa_1" enable-background="new 0 0 512 512" height="512" viewBox="0 0 512 512" width="512" xmlns="http://www.w3.org/2000/svg"><g><g><path d="m270.996 501.429h-29.87c-5.523 0-10-4.477-10-10v-117.475h49.87v117.475c0 5.523-4.477 10-10 10z" fill="#dae7ef"/></g><g><path d="m259.521 373.954v117.157c0 5.699-4.62 10.318-10.318 10.318h21.475c5.699 0 10.318-4.619 10.318-10.318v-117.157z" fill="#c1d5e4"/></g><g><path d="m282.43 398.901h-52.737c-8.837 0-16-7.163-16-16v-45.252h84.737v45.252c0 8.836-7.164 16-16 16z" fill="#dae7ef"/></g><g><path d="m272.346 337.648v44.743c0 9.118-7.391 16.509-16.509 16.509h26.083c9.118 0 16.509-7.391 16.509-16.509v-44.743z" fill="#c1d5e4"/></g><g><path d="m287.208 349.716h-63.671c-27.614 0-50-22.386-50-50v-147.598c0-27.614 22.386-50 50-50h63.671c27.614 0 50 22.386 50 50v147.598c0 27.614-22.385 50-50 50z" fill="#dae7ef"/></g><path d="m304.032 105.027c1.879 5.258 2.909 10.92 2.909 16.823v147.598c0 27.614-22.386 50-50 50h-63.671c-5.904 0-11.565-1.031-16.823-2.909 6.909 19.336 25.38 33.177 47.091 33.177h63.671c27.614 0 50-22.386 50-50v-147.598c-.001-21.711-13.841-40.182-33.177-47.091z" fill="#c1d5e4"/><g><path d="m0 439.004v-193.98l34.566-27.362 54.474 85.573c21.683 34.062 37.962 71.277 48.257 110.321l6.016 22.818c1.725 6.544-3.21 12.949-9.977 12.949h-123.018c-5.698 0-10.318-4.62-10.318-10.319z" fill="#dd5790"/></g><g><path d="m512 439.004v-193.98l-34.566-27.362-54.474 85.573c-21.683 34.062-37.962 71.277-48.257 110.321l-6.016 22.818c-1.725 6.544 3.21 12.949 9.977 12.949h123.017c5.699 0 10.319-4.62 10.319-10.319z" fill="#dd5790"/></g><g><path d="m143.312 436.374-6.016-22.818c-10.295-39.044-26.573-76.259-48.257-110.321l-54.474-85.572-22.975 18.186 20.502 32.206c21.683 34.062 37.962 71.277 48.257 110.321l6.016 22.818c1.725 6.544-3.21 12.949-9.977 12.949h-76.388v24.861c0 5.699 4.62 10.318 10.318 10.318h123.017c6.768.001 11.703-6.404 9.977-12.948z" fill="#da387d"/></g><g><path d="m477.434 217.662-.614.964v185.198c0 5.699-4.62 10.318-10.318 10.318h-91.953l-5.862 22.231c-1.725 6.544 3.21 12.949 9.977 12.949h123.017c5.699 0 10.318-4.619 10.318-10.318v-193.98z" fill="#da387d"/></g><g><path d="m469.192 328.132c-.563 0-1.134-.061-1.706-.19-4.17-.938-6.789-5.079-5.851-9.249l18.353-81.558c.939-4.17 5.081-6.79 9.249-5.851 4.17.938 6.789 5.079 5.851 9.249l-18.353 81.558c-.811 3.597-4.004 6.041-7.543 6.041z" fill="#da387d"/></g><g><path d="m41.555 328.132c-3.539 0-6.733-2.444-7.543-6.041l-18.353-81.558c-.939-4.17 1.681-8.31 5.851-9.249 4.173-.94 8.31 1.681 9.249 5.851l18.353 81.558c.939 4.17-1.681 8.31-5.851 9.249-.572.128-1.144.19-1.706.19z" fill="#da387d"/></g><g><path d="m163.1 10.571h-152.782c-5.698 0-10.318 4.62-10.318 10.318v254.377l18.171-8.826c1.053-.512 2.102-1.03 3.146-1.555 0 0 7.869-11.575 13.057-14.666 5.285-3.149 18.334-4.055 18.334-4.055 49.763-34.754 85.867-86.472 100.99-146.161l19.403-76.579c1.653-6.521-3.275-12.853-10.001-12.853z" fill="#dd5790"/></g><g><path d="m348.9 10.571h152.782c5.699 0 10.318 4.62 10.318 10.318v249.58l-36.675-13.979c-58.025-34.362-100.321-90.562-117.025-156.488l-19.403-76.579c-1.651-6.52 3.277-12.852 10.003-12.852z" fill="#dd5790"/></g><path d="m501.682 10.571h-25.139v189.649c0 9.338-9.772 15.455-18.171 11.375-32.261-15.67-60.417-37.774-83.05-64.512 24.63 51.624 66.182 93.941 118.507 119.356l18.171 8.828v-254.378c0-5.698-4.62-10.318-10.318-10.318z" fill="#da387d"/><g><path d="m163.1 10.571h-27.628l-16.952 66.909c-16.845 66.486-59.732 123.067-118.52 157.345v40.441l18.171-8.826c67.503-32.787 117.097-93.692 135.528-166.438l19.403-76.579c1.652-6.52-3.276-12.852-10.002-12.852z" fill="#da387d"/></g><g fill="#407093"><path d="m287.682 102.118h-4.965v28.392c0 4.274 3.465 7.739 7.739 7.739s7.739-3.465 7.739-7.739v-27.263c-3.39-.734-6.905-1.129-10.513-1.129z"/><path d="m247.635 102.118v28.392c0 4.274 3.465 7.739 7.739 7.739s7.739-3.465 7.739-7.739v-28.392z"/><path d="m223.064 102.118c-3.608 0-7.123.396-10.512 1.129v27.263c0 4.274 3.465 7.739 7.739 7.739s7.739-3.465 7.739-7.739v-28.392z"/><path d="m337.208 280.087h-56.44c-4.274 0-7.739 3.465-7.739 7.739s3.465 7.739 7.739 7.739h56.44z"/><path d="m337.208 245.005h-56.44c-4.274 0-7.739 3.465-7.739 7.739s3.465 7.739 7.739 7.739h56.44z"/><path d="m337.208 209.924h-56.44c-4.274 0-7.739 3.465-7.739 7.739s3.465 7.739 7.739 7.739h56.44z"/><path d="m337.208 174.842h-56.44c-4.274 0-7.739 3.465-7.739 7.739s3.465 7.739 7.739 7.739h56.44z"/><path d="m337.208 209.924h-56.44c-4.274 0-7.739 3.465-7.739 7.739s3.465 7.739 7.739 7.739h56.44z"/><path d="m337.208 174.842h-56.44c-4.274 0-7.739 3.465-7.739 7.739s3.465 7.739 7.739 7.739h56.44z"/><path d="m229.977 174.842h-56.44v15.477h56.44c4.274 0 7.739-3.465 7.739-7.739s-3.465-7.738-7.739-7.738z"/><path d="m229.977 209.924h-56.44v15.477h56.44c4.274 0 7.739-3.465 7.739-7.739s-3.465-7.738-7.739-7.738z"/><path d="m229.977 245.005h-56.44v15.477h56.44c4.274 0 7.739-3.465 7.739-7.739 0-4.273-3.465-7.738-7.739-7.738z"/><path d="m229.977 280.087h-56.44v15.477h56.44c4.274 0 7.739-3.465 7.739-7.739 0-4.273-3.465-7.738-7.739-7.738z"/></g><path d="m306.941 174.842h30.267v15.477h-30.267z" fill="#2b4d66"/><path d="m306.941 209.923h30.267v15.477h-30.267z" fill="#2b4d66"/><path d="m306.941 245.005h30.267v15.477h-30.267z" fill="#2b4d66"/><path d="m305.796 280.087c-1.205 5.56-3.329 10.776-6.214 15.477h37.627v-15.477z" fill="#2b4d66"/></g></svg>